<svg xmlns="http://www.w3.org/2000/svg" version="1.1" xmlns:xlink="http://www.w3.org/1999/xlink" xmlns:svgjs="http://svgjs.dev/svgjs" width="2000" height="742" viewBox="0 0 2000 742"><g transform="matrix(1,0,0,1,-1.2121212121212466,-1.7558722805659954)"><svg viewBox="0 0 396 147" data-background-color="#000000" preserveAspectRatio="xMidYMid meet" height="742" width="2000" xmlns="http://www.w3.org/2000/svg" xmlns:xlink="http://www.w3.org/1999/xlink"><g id="tight-bounds" transform="matrix(1,0,0,1,0.2400000000000091,0.34786148954609075)"><svg viewBox="0 0 395.52 146.3041676382598" height="146.3041676382598" width="395.52"><rect width="395.52" height="146.30427702090776" fill="url(#5f42bc85-4f9e-4c84-af0f-2b98c38e4699)" mask="url(#cf11afd7-cdcf-4773-9b95-3e0765c56b6b)" data-fill-palette-color="tertiary"></rect><g><svg viewBox="0 0 719.1413942393795 266.0128011185529" height="146.3041676382598" width="395.52"><g transform="matrix(1,0,0,1,323.62139423937947,71.99999465521739)"><svg viewBox="0 0 395.52000000000004 122.01281180811809" height="122.01281180811809" width="395.52000000000004"><g id="textblocktransform"><svg viewBox="0 0 395.52000000000004 122.01281180811809" height="122.01281180811809" width="395.52000000000004" id="textblock"><g><svg viewBox="0 0 395.52000000000004 122.01281180811809" height="122.01281180811809" width="395.52000000000004"><g transform="matrix(1,0,0,1,0,0)"><svg width="395.52000000000004" viewBox="2.32 -39.55 165.39000000000001 51.019999999999996" height="122.01281180811809" data-palette-color="url(#b6d696f1-c51a-46a2-a0b8-fd451a721ebd)"></svg></g></svg></g></svg></g></svg></g><g><svg viewBox="0 0 266.0128011185529 266.0128011185529" height="266.0128011185529" width="266.0128011185529"><g><svg></svg></g><g id="icon-0"><svg viewBox="0 0 266.0128011185529 266.0128011185529" height="266.0128011185529" width="266.0128011185529"><g><path d="M0 133.006c0-73.457 59.549-133.006 133.006-133.006 73.457 0 133.006 59.549 133.007 133.006 0 73.457-59.549 133.006-133.007 133.007-73.457 0-133.006-59.549-133.006-133.007zM133.006 255.01c67.38 0 122.003-54.623 122.004-122.004 0-67.38-54.623-122.003-122.004-122.003-67.38 0-122.003 54.623-122.003 122.003 0 67.38 54.623 122.003 122.003 122.004z" data-fill-palette-color="tertiary" fill="url(#5f42bc85-4f9e-4c84-af0f-2b98c38e4699)" stroke="transparent"></path></g><g transform="matrix(1,0,0,1,60.17645160007979,60.17645160007979)"><svg viewBox="0 0 145.6598979183933 145.6598979183933" height="145.6598979183933" width="145.6598979183933"><g><svg xmlns="http://www.w3.org/2000/svg" xmlns:xlink="http://www.w3.org/1999/xlink" version="1.1" x="0" y="0" viewBox="0 0 100 100" style="enable-background:new 0 0 100 100;" xml:space="preserve" height="145.6598979183933" width="145.6598979183933" class="icon-dxe-0" data-fill-palette-color="accent" id="dxe-0"></svg></g></svg></g></svg></g></svg></g></svg></g><defs></defs><mask id="43ff841a-a334-41aa-afb4-3c3ab61fa0e8"><g id="SvgjsG5693"><svg viewBox="0 0 395.52 146.3041676382598" height="146.3041676382598" width="395.52"><g><svg viewBox="0 0 719.1413942393795 266.0128011185529" height="146.3041676382598" width="395.52"><g transform="matrix(1,0,0,1,323.62139423937947,71.99999465521739)"><svg viewBox="0 0 395.52000000000004 122.01281180811809" height="122.01281180811809" width="395.52000000000004"><g id="SvgjsG5692"><svg viewBox="0 0 395.52000000000004 122.01281180811809" height="122.01281180811809" width="395.52000000000004" id="SvgjsSvg5691"><g><svg viewBox="0 0 395.52000000000004 122.01281180811809" height="122.01281180811809" width="395.52000000000004"><g transform="matrix(1,0,0,1,0,0)"><svg width="395.52000000000004" viewBox="2.32 -39.55 165.39000000000001 51.019999999999996" height="122.01281180811809" data-palette-color="url(#b6d696f1-c51a-46a2-a0b8-fd451a721ebd)"><path d="M29.05-8.18L29.05-8.18 30.03-3.42Q28.61-2.1 26.57-1.21 24.54-0.32 22.35 0.15 20.17 0.61 18.31 0.61L18.31 0.61Q13.38 0.61 9.79-1.59 6.2-3.78 4.26-7.81 2.32-11.84 2.32-17.33L2.32-17.33Q2.32-22.05 3.66-25.6 5-29.15 7.34-31.52 9.67-33.89 12.62-35.07 15.58-36.25 18.8-36.25L18.8-36.25Q21.41-36.25 24.23-35.52 27.05-34.79 29.66-32.84L29.66-32.84 28.2-28.44Q25.9-30.52 23.46-31.31 21.02-32.1 18.8-32.1L18.8-32.1Q15.41-32.1 12.76-30.52 10.11-28.93 8.59-25.78 7.08-22.63 7.08-17.94L7.08-17.94Q7.08-13.57 8.57-10.36 10.06-7.15 12.66-5.41 15.26-3.66 18.55-3.66L18.55-3.66Q21.34-3.66 24.17-4.9 27-6.13 29.05-8.18ZM41.14-14.16L41.14-14.16 41.14 0 36.62 0Q36.62-2.95 36.62-6.29 36.62-9.62 36.62-12.94 36.62-16.26 36.62-19.21 36.62-22.17 36.62-24.35 36.62-26.54 36.62-27.59L36.62-27.59Q36.62-31.52 36.57-34.51 36.52-37.5 36.25-39.06L36.25-39.06 41.14-39.06Q41.14-36.21 41.14-33.07 41.14-29.93 41.14-27.12 41.14-24.32 41.14-22.45 41.14-20.58 41.14-20.26L41.14-20.26Q42.94-22.8 45.4-24.1 47.85-25.39 50.41-25.39L50.41-25.39Q54.32-25.39 56.39-22.84 58.47-20.29 58.47-15.26L58.47-15.26Q58.47-14.16 58.47-12.33 58.47-10.5 58.47-8.33 58.47-6.15 58.47-3.98 58.47-1.81 58.47 0L58.47 0 53.95 0Q53.95-1.64 53.95-3.58 53.95-5.52 53.95-7.43 53.95-9.35 53.95-10.94 53.95-12.52 53.95-13.43L53.95-13.43Q53.95-16.48 53.42-18.15 52.88-19.82 51.79-20.47 50.71-21.12 49.07-21.12L49.07-21.12Q47.31-21.12 45.7-20.07 44.09-19.02 42.88-17.42 41.67-15.82 41.14-14.16ZM87.52 0L87.52 0 83.25 0Q82.91-0.78 82.65-2.28 82.39-3.78 82.27-5.38 82.15-6.98 82.15-8.06L82.15-8.06 82.15-10.01Q81.2-7.5 79.71-5.04 78.22-2.59 76.22-0.99 74.21 0.61 71.65 0.61L71.65 0.61Q68.57 0.61 66.45-2.11 64.33-4.83 64.33-10.01L64.33-10.01Q64.33-12.92 65.11-15.66 65.89-18.41 67.5-20.61 69.11-22.8 71.6-24.1 74.09-25.39 77.51-25.39L77.51-25.39Q79.88-25.39 81.98-25.09 84.08-24.78 85.93-24.29L85.93-24.29 85.93-12.94Q85.93-8.33 86.37-5.19 86.81-2.05 87.52 0ZM81.42-17.94L81.42-17.94 81.42-21.04Q80.81-21.19 79.89-21.34 78.97-21.48 77.14-21.48L77.14-21.48Q73.97-21.48 72.15-19.84 70.33-18.19 69.59-15.58 68.84-12.96 68.84-10.01L68.84-10.01Q68.84-7.18 69.89-5.36 70.94-3.54 72.38-3.54L72.38-3.54Q73.68-3.54 74.97-4.68 76.26-5.81 77.42-7.6 78.58-9.4 79.47-11.39 80.37-13.38 80.89-15.14 81.42-16.89 81.42-17.94ZM108.39-5.25L108.39-5.25 108.39-1.34Q106.71-0.27 105.17 0.17 103.63 0.61 102.34 0.61L102.34 0.61Q100.43 0.61 98.87-0.01 97.31-0.63 96.38-2.21 95.45-3.78 95.45-6.59L95.45-6.59Q95.45-7.47 95.45-9.47 95.45-11.47 95.45-14.2 95.45-16.92 95.45-20.03 95.45-23.14 95.45-26.29 95.45-29.44 95.45-32.23L95.45-32.23 99.97-32.23Q99.97-29.1 99.97-25.55 99.97-22 99.97-18.68 99.97-15.36 99.97-12.9 99.97-10.45 99.97-9.52L99.97-9.52Q99.97-7.01 100.3-5.69 100.63-4.37 101.31-3.89 101.99-3.42 103.09-3.42L103.09-3.42Q105.1-3.42 108.39-5.25ZM107.9-24.29L107.9-20.75 90.57-20.75 90.57-24.29 107.9-24.29ZM114.49-24.9L114.49-24.9 119.37-24.9Q119.37-21.58 119.37-18.26 119.37-14.94 119.37-11.6L119.37-11.6Q119.37-10.03 119.44-7.8 119.5-5.57 119.61-3.44 119.72-1.32 119.86 0L119.86 0 114.86 0Q114.86-1.76 114.86-4.13 114.86-6.49 114.86-8.85 114.86-11.21 114.86-12.94L114.86-12.94Q114.86-16.5 114.8-19.74 114.74-22.97 114.49-24.9ZM114-32.84L114-32.84Q114-34.2 114.86-35.17 115.71-36.13 117.06-36.13L117.06-36.13Q118.42-36.13 119.33-35.17 120.23-34.2 120.23-32.84L120.23-32.84Q120.23-31.49 119.33-30.52 118.42-29.54 117.06-29.54L117.06-29.54Q115.71-29.54 114.86-30.52 114-31.49 114-32.84ZM129.87-28.56L129.87-28.56Q129.87-34.06 132.1-36.8 134.34-39.55 138.29-39.55L138.29-39.55Q141.25-39.55 143.66-37.84L143.66-37.84 142.57-33.94Q140.59-35.4 138.29-35.4L138.29-35.4Q136.39-35.4 135.39-34.03 134.39-32.67 134.39-29.54L134.39-29.54Q134.39-28.76 134.39-26.98 134.39-25.2 134.39-22.94 134.39-20.68 134.39-18.44 134.39-16.21 134.39-14.48 134.39-12.74 134.39-12.06L134.39-12.06Q134.39-8.52 134.56-5.22 134.73-1.93 135.12 0L135.12 0 129.87 0Q129.87-3.42 129.87-7.18 129.87-10.94 129.87-14.54 129.87-18.14 129.87-21.15 129.87-24.17 129.87-26.15 129.87-28.13 129.87-28.56ZM140.98-20.75L124.99-20.75 124.99-24.29 140.98-24.29 140.98-20.75ZM147.93-24.9L157.21-1.46 155.14 4.03 146.96-16.24Q146.27-17.9 145.37-19.97 144.47-22.05 143.05-24.9L143.05-24.9 147.93-24.9ZM164.17-16.24L164.17-16.24 158.31 0Q156.63 4.66 155 7.15 153.38 9.64 151.63 10.56 149.89 11.47 147.81 11.47L147.81 11.47Q146.15 11.47 144.66 10.93 143.17 10.38 141.83 9.4L141.83 9.4 143.3 5.49Q144.08 6.13 145.35 6.73 146.62 7.32 147.81 7.32L147.81 7.32Q148.91 7.32 149.95 6.7 150.99 6.08 152.1 4.21 153.21 2.34 154.53-1.34L154.53-1.34Q154.72-1.9 155.05-2.81 155.38-3.71 155.8-4.88L155.8-4.88Q156.7-7.45 157.92-10.91 159.14-14.38 160.43-18.05 161.73-21.73 162.83-24.9L162.83-24.9 167.71-24.9Q166.44-22.07 165.61-20.01 164.78-17.94 164.17-16.24Z" opacity="1" transform="matrix(1,0,0,1,0,0)" fill="white" class="wordmark-text-0" id="SvgjsPath5690"></path></svg></g></svg></g></svg></g></svg></g><g><svg viewBox="0 0 266.0128011185529 266.0128011185529" height="266.0128011185529" width="266.0128011185529"><g><svg></svg></g><g id="SvgjsG5689"><svg viewBox="0 0 266.0128011185529 266.0128011185529" height="266.0128011185529" width="266.0128011185529"><g><path d="M0 133.006c0-73.457 59.549-133.006 133.006-133.006 73.457 0 133.006 59.549 133.007 133.006 0 73.457-59.549 133.006-133.007 133.007-73.457 0-133.006-59.549-133.006-133.007zM133.006 255.01c67.38 0 122.003-54.623 122.004-122.004 0-67.38-54.623-122.003-122.004-122.003-67.38 0-122.003 54.623-122.003 122.003 0 67.38 54.623 122.003 122.003 122.004z" fill="black" stroke="transparent"></path></g><g transform="matrix(1,0,0,1,60.17645160007979,60.17645160007979)"><svg viewBox="0 0 145.6598979183933 145.6598979183933" height="145.6598979183933" width="145.6598979183933"><g><svg xmlns="http://www.w3.org/2000/svg" xmlns:xlink="http://www.w3.org/1999/xlink" version="1.1" x="0" y="0" viewBox="0 0 100 100" style="enable-background:new 0 0 100 100;" xml:space="preserve" height="145.6598979183933" width="145.6598979183933" class="icon-dxe-0" data-fill-palette-color="accent" id="SvgjsSvg5688"><g fill="black"><path d="M74.988 37.5C74.988 51.307 63.806 62.5 50 62.5 50 55.604 44.396 50 37.5 50H24.988C12.5 50 0 42.969 0 25 0 6.641 12.5 0 24.988 0H50C62.5 0 74.988 7.745 74.988 25z" fill="black"></path></g><path d="M37.5 37.5" fill="black"></path><path d="M37.5 37.5" fill="black"></path><g fill="black"><g fill="black"><path d="M81.189 38.165C80.822 55.078 66.992 68.75 50 68.75H43.75V62.5A6.26 6.26 0 0 0 37.5 56.25H25.623A31.3 31.3 0 0 0 24.988 62.5V75C24.988 88.807 36.193 100 50 100 50 93.091 55.604 87.5 62.5 87.5H74.988C87.5 87.5 100 80.469 100 62.5 100 47.211 91.297 40.125 81.189 38.165" fill="black"></path></g></g></svg></g></svg></g></svg></g></svg></g></svg></g><defs><mask></mask></defs></svg><rect width="395.52" height="146.3041676382598" fill="black" stroke="none" visibility="hidden"></rect></g></mask><linearGradient x1="0" x2="1" y1="0.548" y2="0.55" id="b6d696f1-c51a-46a2-a0b8-fd451a721ebd"><stop stop-color="#ff6cab" offset="0"></stop><stop stop-color="#7366ff" offset="1"></stop></linearGradient><rect width="395.52" height="146.30427702090776" fill="url(#b6d696f1-c51a-46a2-a0b8-fd451a721ebd)" mask="url(#43ff841a-a334-41aa-afb4-3c3ab61fa0e8)" data-fill-palette-color="primary"></rect><mask id="26a63540-5741-4de9-86b8-d9748557d17e"><g id="SvgjsG5716"><svg viewBox="0 0 395.52 146.3041676382598" height="146.3041676382598" width="395.52"><g><svg viewBox="0 0 719.1413942393795 266.0128011185529" height="146.3041676382598" width="395.52"><g transform="matrix(1,0,0,1,323.62139423937947,71.99999465521739)"><svg viewBox="0 0 395.52000000000004 122.01281180811809" height="122.01281180811809" width="395.52000000000004"><g id="SvgjsG5715"><svg viewBox="0 0 395.52000000000004 122.01281180811809" height="122.01281180811809" width="395.52000000000004" id="SvgjsSvg5714"><g><svg viewBox="0 0 395.52000000000004 122.01281180811809" height="122.01281180811809" width="395.52000000000004"><g transform="matrix(1,0,0,1,0,0)"><svg width="395.52000000000004" viewBox="2.32 -39.55 165.39000000000001 51.019999999999996" height="122.01281180811809" data-palette-color="url(#b6d696f1-c51a-46a2-a0b8-fd451a721ebd)"></svg></g></svg></g></svg></g></svg></g><g><svg viewBox="0 0 266.0128011185529 266.0128011185529" height="266.0128011185529" width="266.0128011185529"><g><svg></svg></g><g id="SvgjsG5713"><svg viewBox="0 0 266.0128011185529 266.0128011185529" height="266.0128011185529" width="266.0128011185529"><g><path d="M0 133.006c0-73.457 59.549-133.006 133.006-133.006 73.457 0 133.006 59.549 133.007 133.006 0 73.457-59.549 133.006-133.007 133.007-73.457 0-133.006-59.549-133.006-133.007zM133.006 255.01c67.38 0 122.003-54.623 122.004-122.004 0-67.38-54.623-122.003-122.004-122.003-67.38 0-122.003 54.623-122.003 122.003 0 67.38 54.623 122.003 122.003 122.004z" fill="black" stroke="transparent"></path></g><g transform="matrix(1,0,0,1,60.17645160007979,60.17645160007979)"><svg viewBox="0 0 145.6598979183933 145.6598979183933" height="145.6598979183933" width="145.6598979183933"><g><svg xmlns="http://www.w3.org/2000/svg" xmlns:xlink="http://www.w3.org/1999/xlink" version="1.1" x="0" y="0" viewBox="0 0 100 100" style="enable-background:new 0 0 100 100;" xml:space="preserve" height="145.6598979183933" width="145.6598979183933" class="icon-dxe-0" data-fill-palette-color="accent" id="SvgjsSvg5712"><g fill="white"><path d="M74.988 37.5C74.988 51.307 63.806 62.5 50 62.5 50 55.604 44.396 50 37.5 50H24.988C12.5 50 0 42.969 0 25 0 6.641 12.5 0 24.988 0H50C62.5 0 74.988 7.745 74.988 25z" fill="white"></path></g><path d="M37.5 37.5" fill="white"></path><path d="M37.5 37.5" fill="white"></path><g fill="white"><g fill="white"><path d="M81.189 38.165C80.822 55.078 66.992 68.75 50 68.75H43.75V62.5A6.26 6.26 0 0 0 37.5 56.25H25.623A31.3 31.3 0 0 0 24.988 62.5V75C24.988 88.807 36.193 100 50 100 50 93.091 55.604 87.5 62.5 87.5H74.988C87.5 87.5 100 80.469 100 62.5 100 47.211 91.297 40.125 81.189 38.165" fill="white"></path></g></g></svg></g></svg></g></svg></g></svg></g></svg></g><defs><mask></mask></defs><mask><g id="SvgjsG5711"><svg viewBox="0 0 395.52 146.3041676382598" height="146.3041676382598" width="395.52"><g><svg viewBox="0 0 719.1413942393795 266.0128011185529" height="146.3041676382598" width="395.52"><g transform="matrix(1,0,0,1,323.62139423937947,71.99999465521739)"><svg viewBox="0 0 395.52000000000004 122.01281180811809" height="122.01281180811809" width="395.52000000000004"><g id="SvgjsG5710"><svg viewBox="0 0 395.52000000000004 122.01281180811809" height="122.01281180811809" width="395.52000000000004" id="SvgjsSvg5709"><g><svg viewBox="0 0 395.52000000000004 122.01281180811809" height="122.01281180811809" width="395.52000000000004"><g transform="matrix(1,0,0,1,0,0)"><svg width="395.52000000000004" viewBox="2.32 -39.55 165.39000000000001 51.019999999999996" height="122.01281180811809" data-palette-color="url(#b6d696f1-c51a-46a2-a0b8-fd451a721ebd)"><path d="M29.05-8.18L29.05-8.18 30.03-3.42Q28.61-2.1 26.57-1.21 24.54-0.32 22.35 0.15 20.17 0.61 18.31 0.61L18.31 0.61Q13.38 0.61 9.79-1.59 6.2-3.78 4.26-7.81 2.32-11.84 2.32-17.33L2.32-17.33Q2.32-22.05 3.66-25.6 5-29.15 7.34-31.52 9.67-33.89 12.62-35.07 15.58-36.25 18.8-36.25L18.8-36.25Q21.41-36.25 24.23-35.52 27.05-34.79 29.66-32.84L29.66-32.84 28.2-28.44Q25.9-30.52 23.46-31.31 21.02-32.1 18.8-32.1L18.8-32.1Q15.41-32.1 12.76-30.52 10.11-28.93 8.59-25.78 7.08-22.63 7.08-17.94L7.08-17.94Q7.08-13.57 8.57-10.36 10.06-7.15 12.66-5.41 15.26-3.66 18.55-3.66L18.55-3.66Q21.34-3.66 24.17-4.9 27-6.13 29.05-8.18ZM41.14-14.16L41.14-14.16 41.14 0 36.62 0Q36.62-2.95 36.62-6.29 36.62-9.62 36.62-12.94 36.62-16.26 36.62-19.21 36.62-22.17 36.62-24.35 36.62-26.54 36.62-27.59L36.62-27.59Q36.62-31.52 36.57-34.51 36.52-37.5 36.25-39.06L36.25-39.06 41.14-39.06Q41.14-36.21 41.14-33.07 41.14-29.93 41.14-27.12 41.14-24.32 41.14-22.45 41.14-20.58 41.14-20.26L41.14-20.26Q42.94-22.8 45.4-24.1 47.85-25.39 50.41-25.39L50.41-25.39Q54.32-25.39 56.39-22.84 58.47-20.29 58.47-15.26L58.47-15.26Q58.47-14.16 58.47-12.33 58.47-10.5 58.47-8.33 58.47-6.15 58.47-3.98 58.47-1.81 58.47 0L58.47 0 53.95 0Q53.95-1.64 53.95-3.58 53.95-5.52 53.95-7.43 53.95-9.35 53.95-10.94 53.95-12.52 53.95-13.43L53.95-13.43Q53.95-16.48 53.42-18.15 52.88-19.82 51.79-20.47 50.71-21.12 49.07-21.12L49.07-21.12Q47.31-21.12 45.7-20.07 44.09-19.02 42.88-17.42 41.67-15.82 41.14-14.16ZM87.52 0L87.52 0 83.25 0Q82.91-0.78 82.65-2.28 82.39-3.78 82.27-5.38 82.15-6.98 82.15-8.06L82.15-8.06 82.15-10.01Q81.2-7.5 79.71-5.04 78.22-2.59 76.22-0.99 74.21 0.61 71.65 0.61L71.65 0.61Q68.57 0.61 66.45-2.11 64.33-4.83 64.33-10.01L64.33-10.01Q64.33-12.92 65.11-15.66 65.89-18.41 67.5-20.61 69.11-22.8 71.6-24.1 74.09-25.39 77.51-25.39L77.51-25.39Q79.88-25.39 81.98-25.09 84.08-24.78 85.93-24.29L85.93-24.29 85.93-12.94Q85.93-8.33 86.37-5.19 86.81-2.05 87.52 0ZM81.42-17.94L81.42-17.94 81.42-21.04Q80.81-21.19 79.89-21.34 78.97-21.48 77.14-21.48L77.14-21.48Q73.97-21.48 72.15-19.84 70.33-18.19 69.59-15.58 68.84-12.96 68.84-10.01L68.84-10.01Q68.84-7.18 69.89-5.36 70.94-3.54 72.38-3.54L72.38-3.54Q73.68-3.54 74.97-4.68 76.26-5.81 77.42-7.6 78.58-9.4 79.47-11.39 80.37-13.38 80.89-15.14 81.42-16.89 81.42-17.94ZM108.39-5.25L108.39-5.25 108.39-1.34Q106.71-0.27 105.17 0.17 103.63 0.61 102.34 0.61L102.34 0.61Q100.43 0.61 98.87-0.01 97.31-0.63 96.38-2.21 95.45-3.78 95.45-6.59L95.45-6.59Q95.45-7.47 95.45-9.47 95.45-11.47 95.45-14.2 95.45-16.92 95.45-20.03 95.45-23.14 95.45-26.29 95.45-29.44 95.45-32.23L95.45-32.23 99.97-32.23Q99.97-29.1 99.97-25.55 99.97-22 99.97-18.68 99.97-15.36 99.97-12.9 99.97-10.45 99.97-9.52L99.97-9.52Q99.97-7.01 100.3-5.69 100.63-4.37 101.31-3.89 101.99-3.42 103.09-3.42L103.09-3.42Q105.1-3.42 108.39-5.25ZM107.9-24.29L107.9-20.75 90.57-20.75 90.57-24.29 107.9-24.29ZM114.49-24.9L114.49-24.9 119.37-24.9Q119.37-21.58 119.37-18.26 119.37-14.94 119.37-11.6L119.37-11.6Q119.37-10.03 119.44-7.8 119.5-5.57 119.61-3.44 119.72-1.32 119.86 0L119.86 0 114.86 0Q114.86-1.76 114.86-4.13 114.86-6.49 114.86-8.85 114.86-11.21 114.86-12.94L114.86-12.94Q114.86-16.5 114.8-19.74 114.74-22.97 114.49-24.9ZM114-32.84L114-32.84Q114-34.2 114.86-35.17 115.71-36.13 117.06-36.13L117.06-36.13Q118.42-36.13 119.33-35.17 120.23-34.2 120.23-32.84L120.23-32.84Q120.23-31.49 119.33-30.52 118.42-29.54 117.06-29.54L117.06-29.54Q115.71-29.54 114.86-30.52 114-31.49 114-32.84ZM129.87-28.56L129.87-28.56Q129.87-34.06 132.1-36.8 134.34-39.55 138.29-39.55L138.29-39.55Q141.25-39.55 143.66-37.84L143.66-37.84 142.57-33.94Q140.59-35.4 138.29-35.4L138.29-35.4Q136.39-35.4 135.39-34.03 134.39-32.67 134.39-29.54L134.39-29.54Q134.39-28.76 134.39-26.98 134.39-25.2 134.39-22.94 134.39-20.68 134.39-18.44 134.39-16.21 134.39-14.48 134.39-12.74 134.39-12.06L134.39-12.06Q134.39-8.52 134.56-5.22 134.73-1.93 135.12 0L135.12 0 129.87 0Q129.87-3.42 129.87-7.18 129.87-10.94 129.87-14.54 129.87-18.14 129.87-21.15 129.87-24.17 129.87-26.15 129.87-28.13 129.87-28.56ZM140.98-20.75L124.99-20.75 124.99-24.29 140.98-24.29 140.98-20.75ZM147.93-24.9L157.21-1.46 155.14 4.03 146.96-16.24Q146.27-17.9 145.37-19.97 144.47-22.05 143.05-24.9L143.05-24.9 147.93-24.9ZM164.17-16.24L164.17-16.24 158.31 0Q156.63 4.66 155 7.15 153.38 9.64 151.63 10.56 149.89 11.47 147.81 11.47L147.81 11.47Q146.15 11.47 144.66 10.93 143.17 10.38 141.83 9.4L141.83 9.4 143.3 5.49Q144.08 6.13 145.35 6.73 146.62 7.32 147.81 7.32L147.81 7.32Q148.91 7.32 149.95 6.7 150.99 6.08 152.1 4.21 153.21 2.34 154.53-1.34L154.53-1.34Q154.72-1.9 155.05-2.81 155.38-3.71 155.8-4.88L155.8-4.88Q156.7-7.45 157.92-10.91 159.14-14.38 160.43-18.05 161.73-21.73 162.83-24.9L162.83-24.9 167.71-24.9Q166.44-22.07 165.61-20.01 164.78-17.94 164.17-16.24Z" opacity="1" transform="matrix(1,0,0,1,0,0)" fill="black" class="wordmark-text-0" id="SvgjsPath5708"></path></svg></g></svg></g></svg></g></svg></g><g><svg viewBox="0 0 266.0128011185529 266.0128011185529" height="266.0128011185529" width="266.0128011185529"><g><svg></svg></g><g id="SvgjsG5707"><svg viewBox="0 0 266.0128011185529 266.0128011185529" height="266.0128011185529" width="266.0128011185529"><g><path d="M0 133.006c0-73.457 59.549-133.006 133.006-133.006 73.457 0 133.006 59.549 133.007 133.006 0 73.457-59.549 133.006-133.007 133.007-73.457 0-133.006-59.549-133.006-133.007zM133.006 255.01c67.38 0 122.003-54.623 122.004-122.004 0-67.38-54.623-122.003-122.004-122.003-67.38 0-122.003 54.623-122.003 122.003 0 67.38 54.623 122.003 122.003 122.004z" fill="black" stroke="transparent"></path></g><g transform="matrix(1,0,0,1,60.17645160007979,60.17645160007979)"><svg viewBox="0 0 145.6598979183933 145.6598979183933" height="145.6598979183933" width="145.6598979183933"><g><svg xmlns="http://www.w3.org/2000/svg" xmlns:xlink="http://www.w3.org/1999/xlink" version="1.1" x="0" y="0" viewBox="0 0 100 100" style="enable-background:new 0 0 100 100;" xml:space="preserve" height="145.6598979183933" width="145.6598979183933" class="icon-dxe-0" data-fill-palette-color="accent" id="SvgjsSvg5706"><g fill="black"><path d="M74.988 37.5C74.988 51.307 63.806 62.5 50 62.5 50 55.604 44.396 50 37.5 50H24.988C12.5 50 0 42.969 0 25 0 6.641 12.5 0 24.988 0H50C62.5 0 74.988 7.745 74.988 25z" fill="black"></path></g><path d="M37.5 37.5" fill="black"></path><path d="M37.5 37.5" fill="black"></path><g fill="black"><g fill="black"><path d="M81.189 38.165C80.822 55.078 66.992 68.75 50 68.75H43.75V62.5A6.26 6.26 0 0 0 37.5 56.25H25.623A31.3 31.3 0 0 0 24.988 62.5V75C24.988 88.807 36.193 100 50 100 50 93.091 55.604 87.5 62.5 87.5H74.988C87.5 87.5 100 80.469 100 62.5 100 47.211 91.297 40.125 81.189 38.165" fill="black"></path></g></g></svg></g></svg></g></svg></g></svg></g></svg></g><defs><mask></mask></defs></svg><rect width="395.52" height="146.3041676382598" fill="black" stroke="none" visibility="hidden"></rect></g></mask></svg><rect width="395.52" height="146.3041676382598" fill="black" stroke="none" visibility="hidden"></rect></g></mask><linearGradient x1="0" x2="1" y1="0.548" y2="0.55" id="1416d5c0-9c53-4d12-ac2d-e46c8094fb52"><stop stop-color="#ff6cab" offset="0"></stop><stop stop-color="#7366ff" offset="1"></stop></linearGradient><rect width="395.52" height="146.30427702090776" fill="url(#1416d5c0-9c53-4d12-ac2d-e46c8094fb52)" mask="url(#26a63540-5741-4de9-86b8-d9748557d17e)" data-fill-palette-color="accent"></rect><mask id="cf11afd7-cdcf-4773-9b95-3e0765c56b6b"><g id="SvgjsG5738"><svg viewBox="0 0 395.52 146.3041676382598" height="146.3041676382598" width="395.52"><g><svg viewBox="0 0 719.1413942393795 266.0128011185529" height="146.3041676382598" width="395.52"><g transform="matrix(1,0,0,1,323.62139423937947,71.99999465521739)"><svg viewBox="0 0 395.52000000000004 122.01281180811809" height="122.01281180811809" width="395.52000000000004"><g id="SvgjsG5737"><svg viewBox="0 0 395.52000000000004 122.01281180811809" height="122.01281180811809" width="395.52000000000004" id="SvgjsSvg5736"><g><svg viewBox="0 0 395.52000000000004 122.01281180811809" height="122.01281180811809" width="395.52000000000004"><g transform="matrix(1,0,0,1,0,0)"><svg width="395.52000000000004" viewBox="2.32 -39.55 165.39000000000001 51.019999999999996" height="122.01281180811809" data-palette-color="url(#b6d696f1-c51a-46a2-a0b8-fd451a721ebd)"></svg></g></svg></g></svg></g></svg></g><g><svg viewBox="0 0 266.0128011185529 266.0128011185529" height="266.0128011185529" width="266.0128011185529"><g><svg></svg></g><g id="SvgjsG5735"><svg viewBox="0 0 266.0128011185529 266.0128011185529" height="266.0128011185529" width="266.0128011185529"><g><path d="M0 133.006c0-73.457 59.549-133.006 133.006-133.006 73.457 0 133.006 59.549 133.007 133.006 0 73.457-59.549 133.006-133.007 133.007-73.457 0-133.006-59.549-133.006-133.007zM133.006 255.01c67.38 0 122.003-54.623 122.004-122.004 0-67.38-54.623-122.003-122.004-122.003-67.38 0-122.003 54.623-122.003 122.003 0 67.38 54.623 122.003 122.003 122.004z" fill="white" stroke="transparent"></path></g><g transform="matrix(1,0,0,1,60.17645160007979,60.17645160007979)"><svg viewBox="0 0 145.6598979183933 145.6598979183933" height="145.6598979183933" width="145.6598979183933"><g><svg xmlns="http://www.w3.org/2000/svg" xmlns:xlink="http://www.w3.org/1999/xlink" version="1.1" x="0" y="0" viewBox="0 0 100 100" style="enable-background:new 0 0 100 100;" xml:space="preserve" height="145.6598979183933" width="145.6598979183933" class="icon-dxe-0" data-fill-palette-color="accent" id="SvgjsSvg5734"></svg></g></svg></g></svg></g></svg></g></svg></g><defs><mask></mask></defs><mask><g id="SvgjsG5733"><svg viewBox="0 0 395.52 146.3041676382598" height="146.3041676382598" width="395.52"><g><svg viewBox="0 0 719.1413942393795 266.0128011185529" height="146.3041676382598" width="395.52"><g transform="matrix(1,0,0,1,323.62139423937947,71.99999465521739)"><svg viewBox="0 0 395.52000000000004 122.01281180811809" height="122.01281180811809" width="395.52000000000004"><g id="SvgjsG5732"><svg viewBox="0 0 395.52000000000004 122.01281180811809" height="122.01281180811809" width="395.52000000000004" id="SvgjsSvg5731"><g><svg viewBox="0 0 395.52000000000004 122.01281180811809" height="122.01281180811809" width="395.52000000000004"><g transform="matrix(1,0,0,1,0,0)"><svg width="395.52000000000004" viewBox="2.32 -39.55 165.39000000000001 51.019999999999996" height="122.01281180811809" data-palette-color="url(#b6d696f1-c51a-46a2-a0b8-fd451a721ebd)"><path d="M29.05-8.18L29.05-8.18 30.03-3.42Q28.61-2.1 26.57-1.21 24.54-0.32 22.35 0.15 20.17 0.61 18.31 0.61L18.31 0.61Q13.38 0.61 9.79-1.59 6.2-3.78 4.26-7.81 2.32-11.84 2.32-17.33L2.32-17.33Q2.32-22.05 3.66-25.6 5-29.15 7.34-31.52 9.67-33.89 12.62-35.07 15.58-36.25 18.8-36.25L18.8-36.25Q21.41-36.25 24.23-35.52 27.05-34.79 29.66-32.84L29.66-32.84 28.2-28.44Q25.9-30.52 23.46-31.31 21.02-32.1 18.8-32.1L18.8-32.1Q15.41-32.1 12.76-30.52 10.11-28.93 8.59-25.78 7.08-22.63 7.08-17.94L7.08-17.94Q7.08-13.57 8.57-10.36 10.06-7.15 12.66-5.41 15.26-3.66 18.55-3.66L18.55-3.66Q21.34-3.66 24.17-4.9 27-6.13 29.05-8.18ZM41.14-14.16L41.14-14.16 41.14 0 36.62 0Q36.62-2.95 36.62-6.29 36.62-9.62 36.62-12.94 36.62-16.26 36.62-19.21 36.62-22.17 36.62-24.35 36.62-26.54 36.62-27.59L36.62-27.59Q36.62-31.52 36.57-34.51 36.52-37.5 36.25-39.06L36.25-39.06 41.14-39.06Q41.14-36.21 41.14-33.07 41.14-29.93 41.14-27.12 41.14-24.32 41.14-22.45 41.14-20.58 41.14-20.26L41.14-20.26Q42.94-22.8 45.4-24.1 47.85-25.39 50.41-25.39L50.41-25.39Q54.32-25.39 56.39-22.84 58.47-20.29 58.47-15.26L58.47-15.26Q58.47-14.16 58.47-12.33 58.47-10.5 58.47-8.33 58.47-6.15 58.47-3.98 58.47-1.81 58.47 0L58.47 0 53.95 0Q53.95-1.64 53.95-3.58 53.95-5.52 53.95-7.43 53.95-9.35 53.95-10.94 53.95-12.52 53.95-13.43L53.95-13.43Q53.95-16.48 53.42-18.15 52.88-19.82 51.79-20.47 50.71-21.12 49.07-21.12L49.07-21.12Q47.31-21.12 45.7-20.07 44.09-19.02 42.88-17.42 41.67-15.82 41.14-14.16ZM87.52 0L87.52 0 83.25 0Q82.91-0.78 82.65-2.28 82.39-3.78 82.27-5.38 82.15-6.98 82.15-8.06L82.15-8.06 82.15-10.01Q81.2-7.5 79.71-5.04 78.22-2.59 76.22-0.99 74.21 0.61 71.65 0.61L71.65 0.61Q68.57 0.61 66.45-2.11 64.33-4.83 64.33-10.01L64.33-10.01Q64.33-12.92 65.11-15.66 65.89-18.41 67.5-20.61 69.11-22.8 71.6-24.1 74.09-25.39 77.51-25.39L77.51-25.39Q79.88-25.39 81.98-25.09 84.08-24.78 85.93-24.29L85.93-24.29 85.93-12.94Q85.93-8.33 86.37-5.19 86.81-2.05 87.52 0ZM81.42-17.94L81.42-17.94 81.42-21.04Q80.81-21.19 79.89-21.34 78.97-21.48 77.14-21.48L77.14-21.48Q73.97-21.48 72.15-19.84 70.33-18.19 69.59-15.58 68.84-12.96 68.84-10.01L68.84-10.01Q68.84-7.18 69.89-5.36 70.94-3.54 72.38-3.54L72.38-3.54Q73.68-3.54 74.97-4.68 76.26-5.81 77.42-7.6 78.58-9.4 79.47-11.39 80.37-13.38 80.89-15.14 81.42-16.89 81.42-17.94ZM108.39-5.25L108.39-5.25 108.39-1.34Q106.71-0.27 105.17 0.17 103.63 0.61 102.34 0.61L102.34 0.61Q100.43 0.61 98.87-0.01 97.31-0.63 96.38-2.21 95.45-3.78 95.45-6.59L95.45-6.59Q95.45-7.47 95.45-9.47 95.45-11.47 95.45-14.2 95.45-16.92 95.45-20.03 95.45-23.14 95.45-26.29 95.45-29.44 95.45-32.23L95.45-32.23 99.97-32.23Q99.97-29.1 99.97-25.55 99.97-22 99.97-18.68 99.97-15.36 99.97-12.9 99.97-10.45 99.97-9.52L99.97-9.52Q99.97-7.01 100.3-5.69 100.63-4.37 101.31-3.89 101.99-3.42 103.09-3.42L103.09-3.42Q105.1-3.42 108.39-5.25ZM107.9-24.29L107.9-20.75 90.57-20.75 90.57-24.29 107.9-24.29ZM114.49-24.9L114.49-24.9 119.37-24.9Q119.37-21.58 119.37-18.26 119.37-14.94 119.37-11.6L119.37-11.6Q119.37-10.03 119.44-7.8 119.5-5.57 119.61-3.44 119.72-1.32 119.86 0L119.86 0 114.86 0Q114.86-1.76 114.86-4.13 114.86-6.49 114.86-8.85 114.86-11.21 114.86-12.94L114.86-12.94Q114.86-16.5 114.8-19.74 114.74-22.97 114.49-24.9ZM114-32.84L114-32.84Q114-34.2 114.86-35.17 115.71-36.13 117.06-36.13L117.06-36.13Q118.42-36.13 119.33-35.17 120.23-34.2 120.23-32.84L120.23-32.84Q120.23-31.49 119.33-30.52 118.42-29.54 117.06-29.54L117.06-29.54Q115.71-29.54 114.86-30.52 114-31.49 114-32.84ZM129.87-28.56L129.87-28.56Q129.87-34.06 132.1-36.8 134.34-39.55 138.29-39.55L138.29-39.55Q141.25-39.55 143.66-37.84L143.66-37.84 142.57-33.94Q140.59-35.4 138.29-35.4L138.29-35.4Q136.39-35.4 135.39-34.03 134.39-32.67 134.39-29.54L134.39-29.54Q134.39-28.76 134.39-26.98 134.39-25.2 134.39-22.94 134.39-20.68 134.39-18.44 134.39-16.21 134.39-14.48 134.39-12.74 134.39-12.06L134.39-12.06Q134.39-8.52 134.56-5.22 134.73-1.93 135.12 0L135.12 0 129.87 0Q129.87-3.42 129.87-7.18 129.87-10.94 129.87-14.54 129.87-18.14 129.87-21.15 129.87-24.17 129.87-26.15 129.87-28.13 129.87-28.56ZM140.98-20.75L124.99-20.75 124.99-24.29 140.98-24.29 140.98-20.75ZM147.93-24.9L157.21-1.46 155.14 4.03 146.96-16.24Q146.27-17.9 145.37-19.97 144.47-22.05 143.05-24.9L143.05-24.9 147.93-24.9ZM164.17-16.24L164.17-16.24 158.31 0Q156.63 4.66 155 7.15 153.38 9.64 151.63 10.56 149.89 11.47 147.81 11.47L147.81 11.47Q146.15 11.47 144.66 10.93 143.17 10.38 141.83 9.4L141.83 9.4 143.3 5.49Q144.08 6.13 145.35 6.73 146.62 7.32 147.81 7.32L147.81 7.32Q148.91 7.32 149.95 6.7 150.99 6.08 152.1 4.21 153.21 2.34 154.53-1.34L154.53-1.34Q154.72-1.9 155.05-2.81 155.38-3.71 155.8-4.88L155.8-4.88Q156.7-7.45 157.92-10.91 159.14-14.38 160.43-18.05 161.73-21.73 162.83-24.9L162.83-24.9 167.71-24.9Q166.44-22.07 165.61-20.01 164.78-17.94 164.17-16.24Z" opacity="1" transform="matrix(1,0,0,1,0,0)" fill="black" class="wordmark-text-0" id="SvgjsPath5730"></path></svg></g></svg></g></svg></g></svg></g><g><svg viewBox="0 0 266.0128011185529 266.0128011185529" height="266.0128011185529" width="266.0128011185529"><g><svg></svg></g><g id="SvgjsG5729"><svg viewBox="0 0 266.0128011185529 266.0128011185529" height="266.0128011185529" width="266.0128011185529"><g><path d="M0 133.006c0-73.457 59.549-133.006 133.006-133.006 73.457 0 133.006 59.549 133.007 133.006 0 73.457-59.549 133.006-133.007 133.007-73.457 0-133.006-59.549-133.006-133.007zM133.006 255.01c67.38 0 122.003-54.623 122.004-122.004 0-67.38-54.623-122.003-122.004-122.003-67.38 0-122.003 54.623-122.003 122.003 0 67.38 54.623 122.003 122.003 122.004z" fill="black" stroke="transparent"></path></g><g transform="matrix(1,0,0,1,60.17645160007979,60.17645160007979)"><svg viewBox="0 0 145.6598979183933 145.6598979183933" height="145.6598979183933" width="145.6598979183933"><g><svg xmlns="http://www.w3.org/2000/svg" xmlns:xlink="http://www.w3.org/1999/xlink" version="1.1" x="0" y="0" viewBox="0 0 100 100" style="enable-background:new 0 0 100 100;" xml:space="preserve" height="145.6598979183933" width="145.6598979183933" class="icon-dxe-0" data-fill-palette-color="accent" id="SvgjsSvg5728"><g fill="black"><path d="M74.988 37.5C74.988 51.307 63.806 62.5 50 62.5 50 55.604 44.396 50 37.5 50H24.988C12.5 50 0 42.969 0 25 0 6.641 12.5 0 24.988 0H50C62.5 0 74.988 7.745 74.988 25z" fill="black"></path></g><path d="M37.5 37.5" fill="black"></path><path d="M37.5 37.5" fill="black"></path><g fill="black"><g fill="black"><path d="M81.189 38.165C80.822 55.078 66.992 68.75 50 68.75H43.75V62.5A6.26 6.26 0 0 0 37.5 56.25H25.623A31.3 31.3 0 0 0 24.988 62.5V75C24.988 88.807 36.193 100 50 100 50 93.091 55.604 87.5 62.5 87.5H74.988C87.5 87.5 100 80.469 100 62.5 100 47.211 91.297 40.125 81.189 38.165" fill="black"></path></g></g></svg></g></svg></g></svg></g></svg></g></svg></g><defs><mask></mask></defs></svg><rect width="395.52" height="146.3041676382598" fill="black" stroke="none" visibility="hidden"></rect></g></mask><mask><g id="SvgjsG5727"><svg viewBox="0 0 395.52 146.3041676382598" height="146.3041676382598" width="395.52"><g><svg viewBox="0 0 719.1413942393795 266.0128011185529" height="146.3041676382598" width="395.52"><g transform="matrix(1,0,0,1,323.62139423937947,71.99999465521739)"><svg viewBox="0 0 395.52000000000004 122.01281180811809" height="122.01281180811809" width="395.52000000000004"><g id="SvgjsG5726"><svg viewBox="0 0 395.52000000000004 122.01281180811809" height="122.01281180811809" width="395.52000000000004" id="SvgjsSvg5725"><g><svg viewBox="0 0 395.52000000000004 122.01281180811809" height="122.01281180811809" width="395.52000000000004"><g transform="matrix(1,0,0,1,0,0)"><svg width="395.52000000000004" viewBox="2.32 -39.55 165.39000000000001 51.019999999999996" height="122.01281180811809" data-palette-color="url(#b6d696f1-c51a-46a2-a0b8-fd451a721ebd)"></svg></g></svg></g></svg></g></svg></g><g><svg viewBox="0 0 266.0128011185529 266.0128011185529" height="266.0128011185529" width="266.0128011185529"><g><svg></svg></g><g id="SvgjsG5724"><svg viewBox="0 0 266.0128011185529 266.0128011185529" height="266.0128011185529" width="266.0128011185529"><g><path d="M0 133.006c0-73.457 59.549-133.006 133.006-133.006 73.457 0 133.006 59.549 133.007 133.006 0 73.457-59.549 133.006-133.007 133.007-73.457 0-133.006-59.549-133.006-133.007zM133.006 255.01c67.38 0 122.003-54.623 122.004-122.004 0-67.38-54.623-122.003-122.004-122.003-67.38 0-122.003 54.623-122.003 122.003 0 67.38 54.623 122.003 122.003 122.004z" fill="black" stroke="transparent"></path></g><g transform="matrix(1,0,0,1,60.17645160007979,60.17645160007979)"><svg viewBox="0 0 145.6598979183933 145.6598979183933" height="145.6598979183933" width="145.6598979183933"><g><svg xmlns="http://www.w3.org/2000/svg" xmlns:xlink="http://www.w3.org/1999/xlink" version="1.1" x="0" y="0" viewBox="0 0 100 100" style="enable-background:new 0 0 100 100;" xml:space="preserve" height="145.6598979183933" width="145.6598979183933" class="icon-dxe-0" data-fill-palette-color="accent" id="SvgjsSvg5723"><g fill="black"><path d="M74.988 37.5C74.988 51.307 63.806 62.5 50 62.5 50 55.604 44.396 50 37.5 50H24.988C12.5 50 0 42.969 0 25 0 6.641 12.5 0 24.988 0H50C62.5 0 74.988 7.745 74.988 25z" fill="black"></path></g><path d="M37.5 37.5" fill="black"></path><path d="M37.5 37.5" fill="black"></path><g fill="black"><g fill="black"><path d="M81.189 38.165C80.822 55.078 66.992 68.75 50 68.75H43.75V62.5A6.26 6.26 0 0 0 37.5 56.25H25.623A31.3 31.3 0 0 0 24.988 62.5V75C24.988 88.807 36.193 100 50 100 50 93.091 55.604 87.5 62.5 87.5H74.988C87.5 87.5 100 80.469 100 62.5 100 47.211 91.297 40.125 81.189 38.165" fill="black"></path></g></g></svg></g></svg></g></svg></g></svg></g></svg></g><defs><mask></mask></defs><mask><g id="SvgjsG5722"><svg viewBox="0 0 395.52 146.3041676382598" height="146.3041676382598" width="395.52"><g><svg viewBox="0 0 719.1413942393795 266.0128011185529" height="146.3041676382598" width="395.52"><g transform="matrix(1,0,0,1,323.62139423937947,71.99999465521739)"><svg viewBox="0 0 395.52000000000004 122.01281180811809" height="122.01281180811809" width="395.52000000000004"><g id="SvgjsG5721"><svg viewBox="0 0 395.52000000000004 122.01281180811809" height="122.01281180811809" width="395.52000000000004" id="SvgjsSvg5720"><g><svg viewBox="0 0 395.52000000000004 122.01281180811809" height="122.01281180811809" width="395.52000000000004"><g transform="matrix(1,0,0,1,0,0)"><svg width="395.52000000000004" viewBox="2.32 -39.55 165.39000000000001 51.019999999999996" height="122.01281180811809" data-palette-color="url(#b6d696f1-c51a-46a2-a0b8-fd451a721ebd)"><path d="M29.05-8.18L29.05-8.18 30.03-3.42Q28.61-2.1 26.57-1.21 24.54-0.32 22.35 0.15 20.17 0.61 18.31 0.61L18.31 0.61Q13.38 0.61 9.79-1.59 6.2-3.78 4.26-7.81 2.32-11.84 2.32-17.33L2.32-17.33Q2.32-22.05 3.66-25.6 5-29.15 7.34-31.52 9.67-33.89 12.62-35.07 15.58-36.25 18.8-36.25L18.8-36.25Q21.41-36.25 24.23-35.52 27.05-34.79 29.66-32.84L29.66-32.84 28.2-28.44Q25.9-30.52 23.46-31.31 21.02-32.1 18.8-32.1L18.8-32.1Q15.41-32.1 12.76-30.52 10.11-28.93 8.59-25.78 7.08-22.63 7.08-17.94L7.08-17.94Q7.08-13.57 8.57-10.36 10.06-7.15 12.66-5.41 15.26-3.66 18.55-3.66L18.55-3.66Q21.34-3.66 24.17-4.9 27-6.13 29.05-8.18ZM41.14-14.16L41.14-14.16 41.14 0 36.62 0Q36.62-2.95 36.62-6.29 36.62-9.62 36.62-12.94 36.62-16.26 36.62-19.21 36.62-22.17 36.62-24.35 36.62-26.54 36.62-27.59L36.62-27.59Q36.62-31.52 36.57-34.51 36.52-37.5 36.25-39.06L36.25-39.06 41.14-39.06Q41.14-36.21 41.14-33.07 41.14-29.93 41.14-27.12 41.14-24.32 41.14-22.45 41.14-20.58 41.14-20.26L41.14-20.26Q42.94-22.8 45.4-24.1 47.85-25.39 50.41-25.39L50.41-25.39Q54.32-25.39 56.39-22.84 58.47-20.29 58.47-15.26L58.47-15.26Q58.47-14.16 58.47-12.33 58.47-10.5 58.47-8.33 58.47-6.15 58.47-3.98 58.47-1.81 58.47 0L58.47 0 53.95 0Q53.95-1.64 53.95-3.58 53.95-5.52 53.95-7.43 53.95-9.35 53.95-10.94 53.95-12.52 53.95-13.43L53.95-13.43Q53.95-16.48 53.42-18.15 52.88-19.82 51.79-20.47 50.71-21.12 49.07-21.12L49.07-21.12Q47.31-21.12 45.7-20.07 44.09-19.02 42.88-17.42 41.67-15.82 41.14-14.16ZM87.52 0L87.52 0 83.25 0Q82.91-0.78 82.65-2.28 82.39-3.78 82.27-5.38 82.15-6.98 82.15-8.06L82.15-8.06 82.15-10.01Q81.2-7.5 79.71-5.04 78.22-2.59 76.22-0.99 74.21 0.61 71.65 0.61L71.65 0.61Q68.57 0.61 66.45-2.11 64.33-4.83 64.33-10.01L64.33-10.01Q64.33-12.92 65.11-15.66 65.89-18.41 67.5-20.61 69.11-22.8 71.6-24.1 74.09-25.39 77.51-25.39L77.51-25.39Q79.88-25.39 81.98-25.09 84.08-24.78 85.93-24.29L85.93-24.29 85.93-12.94Q85.93-8.33 86.37-5.19 86.81-2.05 87.52 0ZM81.42-17.94L81.42-17.94 81.42-21.04Q80.81-21.19 79.89-21.34 78.97-21.48 77.14-21.48L77.14-21.48Q73.97-21.48 72.15-19.84 70.33-18.19 69.59-15.58 68.84-12.96 68.84-10.01L68.84-10.01Q68.84-7.18 69.89-5.36 70.94-3.54 72.38-3.54L72.38-3.54Q73.68-3.54 74.97-4.68 76.26-5.81 77.42-7.6 78.58-9.4 79.47-11.39 80.37-13.38 80.89-15.14 81.42-16.89 81.42-17.94ZM108.39-5.25L108.39-5.25 108.39-1.34Q106.71-0.27 105.17 0.17 103.63 0.61 102.34 0.61L102.34 0.61Q100.43 0.61 98.87-0.01 97.31-0.63 96.38-2.21 95.45-3.78 95.45-6.59L95.45-6.59Q95.45-7.47 95.45-9.47 95.45-11.47 95.45-14.2 95.45-16.92 95.45-20.03 95.45-23.14 95.45-26.29 95.45-29.44 95.45-32.23L95.45-32.23 99.97-32.23Q99.97-29.1 99.97-25.55 99.97-22 99.97-18.68 99.97-15.36 99.97-12.9 99.97-10.45 99.97-9.52L99.97-9.52Q99.97-7.01 100.3-5.69 100.63-4.37 101.31-3.89 101.99-3.42 103.09-3.42L103.09-3.42Q105.1-3.42 108.39-5.25ZM107.9-24.29L107.9-20.75 90.57-20.75 90.57-24.29 107.9-24.29ZM114.49-24.9L114.49-24.9 119.37-24.9Q119.37-21.58 119.37-18.26 119.37-14.94 119.37-11.6L119.37-11.6Q119.37-10.03 119.44-7.8 119.5-5.57 119.61-3.44 119.72-1.32 119.86 0L119.86 0 114.86 0Q114.86-1.76 114.86-4.13 114.86-6.49 114.86-8.85 114.86-11.21 114.86-12.94L114.86-12.94Q114.86-16.5 114.8-19.74 114.74-22.97 114.49-24.9ZM114-32.84L114-32.84Q114-34.2 114.86-35.17 115.71-36.13 117.06-36.13L117.06-36.13Q118.42-36.13 119.33-35.17 120.23-34.2 120.23-32.84L120.23-32.84Q120.23-31.49 119.33-30.52 118.42-29.54 117.06-29.54L117.06-29.54Q115.71-29.54 114.86-30.52 114-31.49 114-32.84ZM129.87-28.56L129.87-28.56Q129.87-34.06 132.1-36.8 134.34-39.55 138.29-39.55L138.29-39.55Q141.25-39.55 143.66-37.84L143.66-37.84 142.57-33.94Q140.59-35.4 138.29-35.4L138.29-35.4Q136.39-35.4 135.39-34.03 134.39-32.67 134.39-29.54L134.39-29.54Q134.39-28.76 134.39-26.98 134.39-25.2 134.39-22.94 134.39-20.68 134.39-18.44 134.39-16.21 134.39-14.48 134.39-12.74 134.39-12.06L134.39-12.06Q134.39-8.52 134.56-5.22 134.73-1.93 135.12 0L135.12 0 129.87 0Q129.87-3.42 129.87-7.18 129.87-10.94 129.87-14.54 129.87-18.14 129.87-21.15 129.87-24.17 129.87-26.15 129.87-28.13 129.87-28.56ZM140.98-20.75L124.99-20.75 124.99-24.29 140.98-24.29 140.98-20.75ZM147.93-24.9L157.21-1.46 155.14 4.03 146.96-16.24Q146.27-17.9 145.37-19.97 144.47-22.05 143.05-24.9L143.05-24.9 147.93-24.9ZM164.17-16.24L164.17-16.24 158.31 0Q156.63 4.66 155 7.15 153.38 9.64 151.63 10.56 149.89 11.47 147.81 11.47L147.81 11.47Q146.15 11.47 144.66 10.93 143.17 10.38 141.83 9.4L141.83 9.4 143.3 5.49Q144.08 6.13 145.35 6.73 146.62 7.32 147.81 7.32L147.81 7.32Q148.91 7.32 149.95 6.7 150.99 6.08 152.1 4.21 153.21 2.34 154.53-1.34L154.53-1.34Q154.72-1.9 155.05-2.81 155.38-3.71 155.8-4.88L155.8-4.88Q156.7-7.45 157.92-10.91 159.14-14.38 160.43-18.05 161.73-21.73 162.83-24.9L162.83-24.9 167.71-24.9Q166.44-22.07 165.61-20.01 164.78-17.94 164.17-16.24Z" opacity="1" transform="matrix(1,0,0,1,0,0)" fill="black" class="wordmark-text-0" id="SvgjsPath5719"></path></svg></g></svg></g></svg></g></svg></g><g><svg viewBox="0 0 266.0128011185529 266.0128011185529" height="266.0128011185529" width="266.0128011185529"><g><svg></svg></g><g id="SvgjsG5718"><svg viewBox="0 0 266.0128011185529 266.0128011185529" height="266.0128011185529" width="266.0128011185529"><g><path d="M0 133.006c0-73.457 59.549-133.006 133.006-133.006 73.457 0 133.006 59.549 133.007 133.006 0 73.457-59.549 133.006-133.007 133.007-73.457 0-133.006-59.549-133.006-133.007zM133.006 255.01c67.38 0 122.003-54.623 122.004-122.004 0-67.38-54.623-122.003-122.004-122.003-67.38 0-122.003 54.623-122.003 122.003 0 67.38 54.623 122.003 122.003 122.004z" fill="black" stroke="transparent"></path></g><g transform="matrix(1,0,0,1,60.17645160007979,60.17645160007979)"><svg viewBox="0 0 145.6598979183933 145.6598979183933" height="145.6598979183933" width="145.6598979183933"><g><svg xmlns="http://www.w3.org/2000/svg" xmlns:xlink="http://www.w3.org/1999/xlink" version="1.1" x="0" y="0" viewBox="0 0 100 100" style="enable-background:new 0 0 100 100;" xml:space="preserve" height="145.6598979183933" width="145.6598979183933" class="icon-dxe-0" data-fill-palette-color="accent" id="SvgjsSvg5717"><g fill="black"><path d="M74.988 37.5C74.988 51.307 63.806 62.5 50 62.5 50 55.604 44.396 50 37.5 50H24.988C12.5 50 0 42.969 0 25 0 6.641 12.5 0 24.988 0H50C62.5 0 74.988 7.745 74.988 25z" fill="black"></path></g><path d="M37.5 37.5" fill="black"></path><path d="M37.5 37.5" fill="black"></path><g fill="black"><g fill="black"><path d="M81.189 38.165C80.822 55.078 66.992 68.75 50 68.75H43.75V62.5A6.26 6.26 0 0 0 37.5 56.25H25.623A31.3 31.3 0 0 0 24.988 62.5V75C24.988 88.807 36.193 100 50 100 50 93.091 55.604 87.5 62.5 87.5H74.988C87.5 87.5 100 80.469 100 62.5 100 47.211 91.297 40.125 81.189 38.165" fill="black"></path></g></g></svg></g></svg></g></svg></g></svg></g></svg></g><defs><mask></mask></defs></svg><rect width="395.52" height="146.3041676382598" fill="black" stroke="none" visibility="hidden"></rect></g></mask></svg><rect width="395.52" height="146.3041676382598" fill="black" stroke="none" visibility="hidden"></rect></g></mask></svg><rect width="395.52" height="146.3041676382598" fill="black" stroke="none" visibility="hidden"></rect></g></mask><linearGradient x1="0" x2="1" y1="0.548" y2="0.55" id="5f42bc85-4f9e-4c84-af0f-2b98c38e4699"><stop stop-color="#ff6cab" offset="0"></stop><stop stop-color="#7366ff" offset="1"></stop></linearGradient></svg><rect width="395.52" height="146.3041676382598" fill="none" stroke="none" visibility="hidden"></rect></g></svg></g></svg>